# xmcd CD database file
#
# Track frame offsets:
#	150
#	17550
#	42367
#	70205
#	112642
#	182177
#
# Disc length: 2668 seconds
#
# Revision: 0
# Processed by: cddbd v1.5.1PL2 Copyright (c) Steve Scherf et al.
# Submitted via: CDex 1.51
#
DISCID=440a6a06
DTITLE=John-Carlos Perea - First Dance
DYEAR=2001
DGENRE=Jazz
TTITLE0=Opening Prayer
TTITLE1=First Dance
TTITLE2=Blues for my Blood Quantum
TTITLE3=Naima
TTITLE4=Three for Phil McGee
TTITLE5=Closing Prayer
EXTD=YEAR: 2001
EXTT0=
EXTT1=
EXTT2=
EXTT3=
EXTT4=
EXTT5=
PLAYORDER=
